<?xml version="1.0" encoding="UTF-8"?>
<!DOCTYPE svg PUBLIC "-//W3C//DTD SVG 1.1//EN" "http://www.w3.org/Graphics/SVG/1.1/DTD/svg11.dtd">
<!-- Creator: CorelDRAW 2017 -->
<svg xmlns="http://www.w3.org/2000/svg" xml:space="preserve" width="1005px" height="1005px" version="1.1" style="shape-rendering:geometricPrecision; text-rendering:geometricPrecision; image-rendering:optimizeQuality; fill-rule:evenodd; clip-rule:evenodd"
viewBox="0 0 1005 1005"
 xmlns:xlink="http://www.w3.org/1999/xlink">
 <defs>
  <style type="text/css">
   <![CDATA[
    .str0 {stroke:#006700;stroke-width:5.41;stroke-miterlimit:2.61313}
    .fil2 {fill:none}
    .fil0 {fill:#006700}
    .fil1 {fill:#006700;fill-rule:nonzero}
   ]]>
  </style>
 </defs>
 <g id="Layer_x0020_1">
  <metadata id="CorelCorpID_0Corel-Layer"/>
  <path id="path1" class="fil0" d="M251.06 750.07c-13.13,-3.14 -32.14,-19.63 -53.22,-46.18 -42.79,-53.89 -66.02,-114.33 -72.86,-189.56 -1.32,-14.48 -1.31,-51.12 0.02,-64.52 6.26,-63.21 28.37,-117.64 68.96,-169.71 12.42,-15.94 33.02,-36.83 42.88,-43.49 13.96,-9.43 22.75,-10.19 31.18,-2.71 3.44,3.06 4.23,4.48 4.67,8.39 0.83,7.37 -2.95,13.12 -20.51,31.26 -24.54,25.35 -35.87,39.46 -48.41,60.33 -28.48,47.39 -40.66,97.23 -38.92,159.16 0.93,32.99 4.47,57.31 12.25,84.36 7.01,24.36 15.43,44.01 28.03,65.43 12.66,21.5 23.29,35.11 44.56,57.01 18.66,19.21 23.29,25.88 23.29,33.53 0,7.61 -5.37,14.49 -12.96,16.6 -4.19,1.16 -4.47,1.17 -8.95,0.1l-0.01 0zm492.48 0.29c-3.98,-0.85 -11.08,-8.48 -11.88,-12.77 -1.29,-6.91 2.82,-13.07 21.99,-32.91 9.43,-9.77 21.03,-22.61 25.79,-28.54 34.76,-43.35 54.08,-91.58 59.23,-147.93 1.59,-17.36 0.77,-62.11 -1.45,-78.9 -4.64,-35.15 -13.2,-63.9 -28.04,-94.14 -14.19,-28.93 -28.88,-49.45 -53.68,-75.01 -16.66,-17.17 -21.57,-23.44 -23.24,-29.67 -1.64,-6.11 -0.46,-10.65 4.12,-15.86 6.29,-7.14 13.47,-7.78 24.71,-2.19 13.6,6.76 31.23,24.43 51.7,51.79 41.17,55.07 62.41,115.64 67.51,192.59 4.34,65.37 -11.52,131.55 -44.66,186.36 -22.88,37.83 -57.78,76.6 -76.36,84.81 -4.86,2.15 -11.83,3.2 -15.74,2.37l0 0zm-410.99 -39.87c-11.13,-3.37 -17.57,-14.49 -14.89,-25.67 1.66,-6.91 8.6,-14.02 15.35,-15.72 6.8,-1.72 358.71,-1.72 365.51,0 6.96,1.75 13.8,8.88 15.32,15.97 1.99,9.3 -2.18,18.81 -10.3,23.46l-4.29 2.46 -181.96 0.17c-100.08,0.1 -183.22,-0.21 -184.74,-0.67zm138.61 -85.54c-33.79,-12.29 -61.91,-36.24 -76.3,-65.01 -8,-15.99 -12.65,-35.35 -12.64,-52.71 0,-23.47 9.18,-45.83 37.14,-90.5 20.82,-33.27 24.37,-39.34 30.49,-52.12 8.15,-17 10.83,-27.1 11,-41.37 0.17,-13.64 -1.88,-21.73 -8.16,-32.31 -4.45,-7.51 -14.49,-18.82 -18.56,-20.93 -6.64,-3.43 -8.01,-8.09 -3.3,-11.18 7.46,-4.89 27.83,-1.79 46.54,7.08 21.18,10.03 36.79,24.43 46.95,43.33 7.84,14.56 11,25.71 16.31,57.6 5.9,35.38 11.74,46.61 23.56,45.25 6.26,-0.72 10.17,-3.1 12.81,-7.79 4.2,-7.47 2.4,-17.71 -6.1,-34.64 -6.94,-13.83 -6.51,-18.01 1.63,-15.86 4.22,1.12 17.91,12.3 27.38,22.36 23.71,25.2 35.51,48.08 41.18,79.89 2.98,16.68 3.22,44.34 0.53,58.79 -3.41,18.24 -10.3,35.45 -20.1,50.17 -10.93,16.42 -33.73,37.19 -50.3,45.82 -7.49,3.91 -10.09,4.14 -13.76,1.26 -4.56,-3.59 -3.6,-6.09 6.49,-16.8 15.16,-16.1 22.9,-27.55 27.39,-40.51 6.92,-19.99 3.48,-47.86 -8.12,-65.63 -4.8,-7.35 -11.85,-13.84 -15.03,-13.84 -1.74,0 -1.45,2.29 1.78,14.12 1.13,4.15 2.06,9.21 2.06,11.26 0,10.82 -15.28,18.66 -28.73,14.75 -10.94,-3.18 -15.76,-13.1 -14.31,-29.43 0.45,-5.05 0.85,-14.23 0.89,-20.39 0.07,-10.87 -0.03,-11.42 -3.47,-18.2 -6.71,-13.23 -22.22,-26.85 -30.57,-26.85 -3.6,0 -3.9,0.21 -3.9,2.86 0,1.78 1,3.8 2.64,5.32 8.65,8.08 10.28,24.62 3.86,39.23 -3.97,9.03 -8.45,14.15 -23.73,27.12 -20.1,17.06 -26.58,25.19 -30.6,38.38 -1.85,6.1 -2.05,8.59 -1.52,19.77 0.88,18.77 4.7,31.22 13.64,44.38 6.87,10.11 14.91,16.53 25.83,20.61 5.25,1.96 5.83,2.47 5.83,5.11 0,3.06 -2.33,5.07 -5.77,4.98 -1.01,-0.03 -5.94,-1.54 -10.96,-3.37l0 0z"/>
  <path class="fil1" d="M291.35 824.99c1.14,0.86 1.92,1.67 2.33,2.45 0.52,1.02 0.78,2.24 0.78,3.64l0 12.25c0,1.29 0.37,2.35 1.13,3.18 0.75,0.83 1.7,1.3 2.82,1.42 0.71,0.07 1.17,0.21 1.4,0.4 0.3,0.28 0.45,0.62 0.45,1.03 0,0.43 -0.15,0.78 -0.45,1.03 -0.3,0.27 -0.73,0.4 -1.31,0.4 -1.81,0 -3.32,-0.57 -4.52,-1.7 -1.6,-1.57 -2.4,-3.48 -2.38,-5.73l0 -12.28c0,-1.24 -0.39,-2.29 -1.15,-3.15 -0.76,-0.85 -1.73,-1.32 -2.92,-1.41 -0.65,-0.07 -1.09,-0.23 -1.35,-0.48 -0.25,-0.25 -0.38,-0.6 -0.38,-1.05 0,-0.44 0.13,-0.77 0.38,-1.03 0.26,-0.24 0.7,-0.41 1.35,-0.48 1.2,-0.09 2.18,-0.56 2.94,-1.41 0.75,-0.86 1.13,-1.9 1.13,-3.15l0 -12.28c-0.02,-2.13 0.65,-3.91 2.01,-5.33 1.36,-1.42 3,-2.13 4.92,-2.13 0.56,0 0.98,0.14 1.28,0.41 0.3,0.27 0.45,0.61 0.45,1.02 0,0.41 -0.15,0.76 -0.45,1.02 -0.21,0.24 -0.67,0.38 -1.4,0.45 -1.15,0.11 -2.09,0.59 -2.83,1.43 -0.75,0.85 -1.12,1.88 -1.12,3.14l0 12.27c0,1.43 -0.23,2.58 -0.69,3.46 -0.45,0.87 -1.25,1.74 -2.42,2.61z"/>
  <path id="1" class="fil1" d="M344.62 822.71l-19 0 0 16.42 3.84 0c0.7,0 1.2,0.13 1.5,0.39 0.31,0.26 0.46,0.61 0.46,1.04 0,0.41 -0.15,0.74 -0.46,1.02 -0.3,0.27 -0.8,0.41 -1.5,0.41l-9.92 0c-0.69,0 -1.2,-0.14 -1.5,-0.41 -0.3,-0.28 -0.45,-0.61 -0.45,-1.02 0,-0.43 0.15,-0.78 0.45,-1.04 0.3,-0.26 0.81,-0.39 1.5,-0.39l3.22 0 0 -34.16 -1.75 0c-0.71,0 -1.21,-0.12 -1.51,-0.39 -0.29,-0.26 -0.45,-0.61 -0.45,-1.04 0,-0.43 0.16,-0.78 0.45,-1.03 0.3,-0.27 0.8,-0.4 1.51,-0.4l8.45 0c0.7,0 1.2,0.13 1.5,0.4 0.31,0.25 0.46,0.6 0.46,1.03 0,0.43 -0.15,0.78 -0.46,1.04 -0.3,0.27 -0.8,0.39 -1.5,0.39l-3.84 0 0 14.88 19 0 0 -14.88 -3.78 0c-0.69,0 -1.19,-0.12 -1.5,-0.39 -0.3,-0.26 -0.45,-0.61 -0.45,-1.04 0,-0.43 0.15,-0.78 0.44,-1.03 0.29,-0.27 0.79,-0.4 1.51,-0.4l8.39 0c0.71,0 1.21,0.13 1.51,0.4 0.29,0.25 0.44,0.6 0.44,1.03 0,0.43 -0.15,0.78 -0.44,1.04 -0.3,0.27 -0.8,0.39 -1.51,0.39l-1.75 0 0 34.16 3.21 0c0.7,0 1.2,0.13 1.5,0.39 0.31,0.26 0.46,0.61 0.46,1.04 0,0.41 -0.15,0.74 -0.46,1.02 -0.3,0.27 -0.8,0.41 -1.5,0.41l-9.85 0c-0.69,0 -1.19,-0.14 -1.5,-0.41 -0.3,-0.28 -0.45,-0.61 -0.45,-1.02 0,-0.43 0.15,-0.78 0.44,-1.04 0.29,-0.26 0.79,-0.39 1.51,-0.39l3.78 0 0 -16.42z"/>
  <path id="2" class="fil1" d="M377.02 841.99l-13.31 -26.68 -0.85 0c-0.7,0 -1.2,-0.14 -1.51,-0.41 -0.3,-0.27 -0.45,-0.61 -0.45,-1.02 0,-0.29 0.08,-0.55 0.23,-0.78 0.15,-0.23 0.35,-0.41 0.6,-0.5 0.24,-0.11 0.61,-0.15 1.13,-0.15l7.82 0c0.7,0 1.2,0.13 1.5,0.39 0.3,0.27 0.45,0.62 0.45,1.04 0,0.41 -0.15,0.75 -0.45,1.02 -0.3,0.27 -0.8,0.41 -1.5,0.41l-3.78 0 11.7 23.46 11.49 -23.46 -3.77 0c-0.7,0 -1.2,-0.13 -1.5,-0.39 -0.3,-0.27 -0.45,-0.62 -0.45,-1.04 0,-0.41 0.15,-0.74 0.45,-1.02 0.3,-0.27 0.8,-0.41 1.5,-0.41l7.68 0c0.72,0 1.22,0.13 1.52,0.39 0.29,0.27 0.44,0.62 0.44,1.04 0,0.29 -0.09,0.57 -0.27,0.81 -0.18,0.26 -0.39,0.42 -0.61,0.51 -0.24,0.08 -0.87,0.11 -1.91,0.11l-18.12 36.95 3.8 0c0.7,0 1.2,0.12 1.5,0.39 0.3,0.26 0.46,0.61 0.46,1.04 0,0.41 -0.16,0.74 -0.46,1.02 -0.3,0.27 -0.8,0.41 -1.5,0.41l-15.78 0c-0.7,0 -1.2,-0.13 -1.51,-0.4 -0.3,-0.25 -0.45,-0.6 -0.45,-1.03 0,-0.43 0.15,-0.78 0.45,-1.04 0.31,-0.27 0.81,-0.39 1.51,-0.39l8.92 0 5.03 -10.27z"/>
  <path id="3" class="fil1" d="M432.78 799.18l0 39.95 3.84 0c0.71,0 1.21,0.13 1.51,0.39 0.29,0.26 0.44,0.61 0.44,1.04 0,0.41 -0.15,0.74 -0.44,1.02 -0.3,0.27 -0.8,0.41 -1.51,0.41l-6.71 0 0 -5.7c-3.31,4.55 -7.54,6.82 -12.65,6.82 -2.59,0 -5.07,-0.69 -7.45,-2.06 -2.37,-1.38 -4.26,-3.33 -5.63,-5.88 -1.38,-2.54 -2.06,-5.16 -2.06,-7.87 0,-2.72 0.68,-5.34 2.06,-7.88 1.37,-2.53 3.26,-4.49 5.63,-5.88 2.38,-1.38 4.87,-2.07 7.49,-2.07 5,0 9.2,2.26 12.61,6.79l0 -16.22 -3.84 0c-0.71,0 -1.21,-0.13 -1.51,-0.39 -0.29,-0.27 -0.44,-0.62 -0.44,-1.04 0,-0.41 0.15,-0.75 0.44,-1.02 0.3,-0.27 0.8,-0.41 1.51,-0.41l6.71 0zm-2.87 28.11c0,-3.63 -1.22,-6.71 -3.67,-9.21 -2.46,-2.5 -5.38,-3.75 -8.77,-3.75 -3.42,0 -6.35,1.25 -8.81,3.75 -2.46,2.5 -3.68,5.58 -3.68,9.21 0,3.61 1.22,6.68 3.68,9.18 2.46,2.52 5.39,3.77 8.81,3.77 3.39,0 6.31,-1.25 8.77,-3.77 2.45,-2.5 3.67,-5.57 3.67,-9.18z"/>
  <path id="4" class="fil1" d="M476.16 827.95l-29.19 0c0.5,3.69 2.04,6.66 4.64,8.92 2.6,2.25 5.81,3.37 9.65,3.37 2.13,0 4.37,-0.36 6.7,-1.07 2.33,-0.71 4.24,-1.64 5.72,-2.81 0.43,-0.34 0.8,-0.52 1.12,-0.52 0.36,0 0.69,0.14 0.95,0.44 0.27,0.28 0.41,0.61 0.41,1.01 0,0.38 -0.19,0.76 -0.55,1.13 -1.08,1.14 -3.01,2.21 -5.79,3.2 -2.77,0.99 -5.63,1.49 -8.55,1.49 -4.9,0 -8.98,-1.61 -12.26,-4.82 -3.27,-3.21 -4.91,-7.1 -4.91,-11.66 0,-4.16 1.54,-7.72 4.62,-10.7 3.08,-2.97 6.88,-4.46 11.43,-4.46 4.67,0 8.53,1.52 11.55,4.59 3.02,3.06 4.51,7.03 4.46,11.89zm-2.86 -2.86c-0.57,-3.19 -2.08,-5.77 -4.5,-7.76 -2.43,-2 -5.32,-3 -8.67,-3 -3.35,0 -6.24,0.99 -8.65,2.96 -2.42,1.97 -3.92,4.56 -4.51,7.8l26.33 0z"/>
  <path id="5" class="fil1" d="M499.15 812.45l0 7.23c3.72,-3.36 6.52,-5.52 8.37,-6.49 1.86,-0.96 3.57,-1.44 5.13,-1.44 1.71,0 3.29,0.57 4.76,1.72 1.47,1.14 2.2,2.02 2.2,2.6 0,0.43 -0.14,0.79 -0.43,1.08 -0.28,0.28 -0.64,0.42 -1.07,0.42 -0.22,0 -0.42,-0.03 -0.58,-0.12 -0.15,-0.08 -0.46,-0.33 -0.89,-0.75 -0.79,-0.8 -1.49,-1.34 -2.08,-1.63 -0.58,-0.31 -1.16,-0.46 -1.73,-0.46 -1.25,0 -2.76,0.5 -4.52,1.51 -1.77,1 -4.82,3.43 -9.16,7.32l0 15.69 12.64 0c0.71,0 1.21,0.13 1.51,0.39 0.29,0.26 0.45,0.61 0.45,1.04 0,0.41 -0.16,0.74 -0.45,1.02 -0.3,0.27 -0.8,0.41 -1.51,0.41l-22.35 0c-0.7,0 -1.2,-0.14 -1.5,-0.41 -0.3,-0.26 -0.46,-0.6 -0.46,-1.02 0,-0.39 0.16,-0.71 0.45,-0.97 0.29,-0.27 0.79,-0.39 1.51,-0.39l6.85 0 0 -23.89 -5.24 0c-0.7,0 -1.2,-0.13 -1.5,-0.39 -0.31,-0.27 -0.46,-0.62 -0.46,-1.04 0,-0.41 0.15,-0.74 0.44,-1.02 0.29,-0.27 0.8,-0.41 1.52,-0.41l8.1 0z"/>
  <path id="6" class="fil1" d="M552.73 841.99l0 -4.13c-4.18,3.5 -8.64,5.25 -13.39,5.25 -3.44,0 -6.13,-0.87 -8.08,-2.61 -1.94,-1.73 -2.91,-3.86 -2.91,-6.39 0,-2.77 1.28,-5.18 3.83,-7.25 2.56,-2.06 6.3,-3.1 11.2,-3.1 1.33,0 2.76,0.08 4.32,0.26 1.55,0.17 3.22,0.43 5.03,0.8l0 -4.64c0,-1.57 -0.74,-2.95 -2.19,-4.1 -1.47,-1.16 -3.66,-1.75 -6.59,-1.75 -2.23,0 -5.38,0.66 -9.42,1.96 -0.74,0.23 -1.21,0.35 -1.42,0.35 -0.37,0 -0.68,-0.14 -0.94,-0.41 -0.27,-0.27 -0.4,-0.62 -0.4,-1.02 0,-0.39 0.12,-0.69 0.34,-0.92 0.33,-0.34 1.62,-0.81 3.88,-1.39 3.55,-0.95 6.25,-1.43 8.07,-1.43 3.63,0 6.46,0.9 8.48,2.68 2.04,1.78 3.05,3.79 3.05,6.04l0 18.94 3.84 0c0.71,0 1.21,0.13 1.52,0.39 0.29,0.26 0.44,0.61 0.44,1.04 0,0.41 -0.15,0.74 -0.44,1.02 -0.31,0.27 -0.81,0.41 -1.52,0.41l-6.7 0zm0 -14.24c-1.35,-0.39 -2.77,-0.67 -4.29,-0.86 -1.5,-0.17 -3.09,-0.26 -4.76,-0.26 -4.18,0 -7.44,0.89 -9.79,2.68 -1.78,1.34 -2.67,2.95 -2.67,4.8 0,1.73 0.67,3.18 2.03,4.36 1.37,1.18 3.34,1.77 5.95,1.77 2.49,0 4.8,-0.48 6.94,-1.47 2.13,-0.99 4.33,-2.56 6.59,-4.72l0 -6.3z"/>
  <path id="7" class="fil1" d="M575.65 799.18l0 19.01c3.44,-4.48 7.61,-6.72 12.49,-6.72 4.16,0 7.74,1.51 10.7,4.55 2.97,3.03 4.46,6.74 4.46,11.15 0,4.45 -1.5,8.22 -4.5,11.3 -3.01,3.09 -6.57,4.64 -10.66,4.64 -5,0 -9.16,-2.25 -12.49,-6.75l0 5.63 -6.71 0c-0.7,0 -1.2,-0.14 -1.5,-0.41 -0.3,-0.28 -0.45,-0.61 -0.45,-1.02 0,-0.43 0.15,-0.78 0.45,-1.04 0.3,-0.26 0.8,-0.39 1.5,-0.39l3.84 0 0 -37.09 -3.84 0c-0.7,0 -1.2,-0.13 -1.5,-0.39 -0.3,-0.27 -0.45,-0.62 -0.45,-1.04 0,-0.41 0.15,-0.75 0.45,-1.02 0.3,-0.27 0.8,-0.41 1.5,-0.41l6.71 0zm24.79 28.12c0,-3.61 -1.23,-6.67 -3.71,-9.18 -2.48,-2.53 -5.37,-3.79 -8.69,-3.79 -3.31,0 -6.2,1.26 -8.68,3.78 -2.48,2.5 -3.71,5.57 -3.71,9.18 0,3.61 1.23,6.68 3.71,9.18 2.48,2.52 5.37,3.77 8.68,3.77 3.32,0 6.21,-1.25 8.69,-3.75 2.48,-2.52 3.71,-5.58 3.71,-9.19z"/>
  <path id="8" class="fil1" d="M636.56 841.99l0 -4.13c-4.18,3.5 -8.64,5.25 -13.39,5.25 -3.44,0 -6.13,-0.87 -8.08,-2.61 -1.94,-1.73 -2.91,-3.86 -2.91,-6.39 0,-2.77 1.28,-5.18 3.83,-7.25 2.56,-2.06 6.3,-3.1 11.2,-3.1 1.33,0 2.76,0.08 4.32,0.26 1.55,0.17 3.22,0.43 5.03,0.8l0 -4.64c0,-1.57 -0.73,-2.95 -2.19,-4.1 -1.47,-1.16 -3.65,-1.75 -6.59,-1.75 -2.23,0 -5.38,0.66 -9.42,1.96 -0.74,0.23 -1.21,0.35 -1.42,0.35 -0.37,0 -0.68,-0.14 -0.94,-0.41 -0.27,-0.27 -0.39,-0.62 -0.39,-1.02 0,-0.39 0.11,-0.69 0.33,-0.92 0.33,-0.34 1.62,-0.81 3.88,-1.39 3.55,-0.95 6.25,-1.43 8.07,-1.43 3.63,0 6.46,0.9 8.48,2.68 2.04,1.78 3.05,3.79 3.05,6.04l0 18.94 3.84 0c0.71,0 1.21,0.13 1.52,0.39 0.29,0.26 0.44,0.61 0.44,1.04 0,0.41 -0.15,0.74 -0.44,1.02 -0.31,0.27 -0.81,0.41 -1.52,0.41l-6.7 0zm0 -14.24c-1.35,-0.39 -2.77,-0.67 -4.29,-0.86 -1.5,-0.17 -3.09,-0.26 -4.76,-0.26 -4.17,0 -7.43,0.89 -9.79,2.68 -1.78,1.34 -2.67,2.95 -2.67,4.8 0,1.73 0.67,3.18 2.04,4.36 1.36,1.18 3.33,1.77 5.94,1.77 2.49,0 4.8,-0.48 6.94,-1.47 2.13,-0.99 4.33,-2.56 6.59,-4.72l0 -6.3z"/>
  <path id="9" class="fil1" d="M684.27 799.18l0 39.95 3.84 0c0.71,0 1.21,0.13 1.51,0.39 0.3,0.26 0.45,0.61 0.45,1.04 0,0.41 -0.15,0.74 -0.45,1.02 -0.3,0.27 -0.8,0.41 -1.51,0.41l-6.7 0 0 -5.7c-3.32,4.55 -7.55,6.82 -12.66,6.82 -2.59,0 -5.07,-0.69 -7.44,-2.06 -2.38,-1.38 -4.27,-3.33 -5.64,-5.88 -1.37,-2.54 -2.06,-5.16 -2.06,-7.87 0,-2.72 0.69,-5.34 2.06,-7.88 1.37,-2.53 3.26,-4.49 5.64,-5.88 2.37,-1.38 4.86,-2.07 7.48,-2.07 5,0 9.21,2.26 12.62,6.79l0 -16.22 -3.84 0c-0.71,0 -1.21,-0.13 -1.52,-0.39 -0.29,-0.27 -0.44,-0.62 -0.44,-1.04 0,-0.41 0.15,-0.75 0.44,-1.02 0.31,-0.27 0.81,-0.41 1.52,-0.41l6.7 0zm-2.86 28.11c0,-3.63 -1.22,-6.71 -3.68,-9.21 -2.46,-2.5 -5.38,-3.75 -8.77,-3.75 -3.42,0 -6.35,1.25 -8.81,3.75 -2.45,2.5 -3.68,5.58 -3.68,9.21 0,3.61 1.23,6.68 3.68,9.18 2.46,2.52 5.39,3.77 8.81,3.77 3.39,0 6.31,-1.25 8.77,-3.77 2.46,-2.5 3.68,-5.57 3.68,-9.18z"/>
  <path id="10" class="fil1" d="M713.79 824.99c-1.16,-0.87 -1.93,-1.69 -2.33,-2.46 -0.52,-1 -0.78,-2.21 -0.78,-3.62l0 -12.29c0,-1.27 -0.37,-2.33 -1.13,-3.17 -0.75,-0.85 -1.7,-1.31 -2.81,-1.41 -0.74,-0.06 -1.2,-0.2 -1.41,-0.39 -0.29,-0.31 -0.44,-0.64 -0.44,-1.05 0,-0.41 0.13,-0.75 0.43,-1.01 0.27,-0.27 0.71,-0.41 1.28,-0.41 1.82,0 3.34,0.58 4.52,1.73 1.62,1.55 2.43,3.46 2.43,5.73l0 12.27c0,1.26 0.38,2.3 1.15,3.15 0.77,0.85 1.74,1.33 2.92,1.42 0.62,0.07 1.06,0.22 1.33,0.48 0.26,0.24 0.39,0.59 0.39,1.03 0,0.44 -0.13,0.79 -0.39,1.03 -0.27,0.24 -0.71,0.41 -1.33,0.47 -1.2,0.09 -2.18,0.57 -2.93,1.42 -0.76,0.85 -1.14,1.89 -1.14,3.15l0 12.27c-0.03,2.13 -0.71,3.91 -2.06,5.33 -1.34,1.42 -2.97,2.13 -4.88,2.13 -0.57,0 -1,-0.14 -1.29,-0.41 -0.3,-0.26 -0.43,-0.61 -0.43,-1.03 0,-0.41 0.13,-0.75 0.4,-1.02 0.24,-0.2 0.71,-0.33 1.45,-0.4 1.14,-0.12 2.08,-0.6 2.82,-1.45 0.75,-0.86 1.12,-1.9 1.12,-3.15l0 -12.25c0,-1.43 0.23,-2.58 0.69,-3.46 0.45,-0.9 1.26,-1.77 2.42,-2.63z"/>
  <g>
   <path class="fil2 str0" d="M502.5 2.7c276.03,0 499.8,223.77 499.8,499.8 0,276.03 -223.77,499.8 -499.8,499.8 -276.03,0 -499.8,-223.77 -499.8,-499.8 0,-276.03 223.77,-499.8 499.8,-499.8z"/>
  </g>
 </g>
</svg>
