<?xml version="1.0" encoding="UTF-8" standalone="no"?>
<!-- Created with Inkscape (http://www.inkscape.org/) -->

<svg
   xmlns:dc="http://purl.org/dc/elements/1.1/"
   xmlns:cc="http://creativecommons.org/ns#"
   xmlns:rdf="http://www.w3.org/1999/02/22-rdf-syntax-ns#"
   xmlns:svg="http://www.w3.org/2000/svg"
   xmlns="http://www.w3.org/2000/svg"
   xmlns:sodipodi="http://sodipodi.sourceforge.net/DTD/sodipodi-0.dtd"
   xmlns:inkscape="http://www.inkscape.org/namespaces/inkscape"
   width="129mm"
   height="121mm"
   viewBox="0 0 457.08645 428.73996"
   id="svg2"
   version="1.1"
   inkscape:version="0.91 r13725"
   sodipodi:docname="Nebulae-1.svg">
  <defs
     id="defs4" />
  <sodipodi:namedview
     id="base"
     pagecolor="#ffffff"
     bordercolor="#666666"
     borderopacity="1.0"
     inkscape:pageopacity="0"
     inkscape:pageshadow="2"
     inkscape:zoom="0.35"
     inkscape:cx="260.71429"
     inkscape:cy="291.42857"
     inkscape:document-units="px"
     inkscape:current-layer="layer1-6"
     showgrid="false"
     units="mm"
     height="209mm"
     inkscape:showpageshadow="false"
     inkscape:window-width="1855"
     inkscape:window-height="1056"
     inkscape:window-x="65"
     inkscape:window-y="24"
     inkscape:window-maximized="1" />
  <metadata
     id="metadata7">
    <rdf:RDF>
      <cc:Work
         rdf:about="">
        <dc:format>image/svg+xml</dc:format>
        <dc:type
           rdf:resource="http://purl.org/dc/dcmitype/StillImage" />
        <dc:title></dc:title>
      </cc:Work>
    </rdf:RDF>
  </metadata>
  <g
     inkscape:label="Layer 1"
     inkscape:groupmode="layer"
     id="layer1"
     transform="translate(0,-623.62159)">
    <g
       transform="translate(-8.5714543,-272.37314)"
       id="layer1-6"
       inkscape:label="Layer 1">
      <g
         transform="matrix(1.0147242,0,0,1,30.093903,1218.3567)"
         id="g3591"
         style="display:block">
        <g
           id="svgg"
           transform="translate(5.2,-2.8)">
          <path
             id="path0"
             d="m 128.9,13.06 c -0.395,0.163 -0.5,8.097 -0.5,37.773 l 0,37.567 5.551,0 5.552,0 1.348,-3 c 1.578,-3.508 1.487,-3.476 3.888,-1.355 10.127,8.947 25.215,5.954 31.033,-6.157 4.828,-10.049 4.268,-26.933 -1.192,-35.92 -6.129,-10.09 -20.126,-12.087 -28.613,-4.082 L 143.211,40.487 143.105,26.743 143,13 136.2,12.927 c -3.74,-0.04 -7.025,0.02 -7.3,0.133 m 126.943,0.373 c -0.503,1.311 -0.272,73.978 0.237,74.487 0.336,0.336 2.551,0.48 7.4,0.48 l 6.92,0 0,-37.8 0,-37.8 -7.157,0 c -6.158,0 -7.191,0.088 -7.4,0.633 M 33.2,33.037 c -6.189,1.013 -8.881,2.206 -12.223,5.416 -2.98,2.861 -2.823,2.906 -3.991,-1.145 L 16.09,34.2 10.445,34.089 4.8,33.978 l 0,26.964 0,26.965 0.9,0.241 c 1.179,0.316 11.049,0.322 12.619,0.008 l 1.219,-0.244 0.158,-16.456 C 19.87,53.281 19.934,52.768 22.504,48.956 25.772,44.108 34.471,43.4 37.762,47.715 39.821,50.414 40,52.266 40,70.837 l 0,17.07 0.9,0.241 c 0.495,0.133 3.929,0.244 7.63,0.247 L 55.261,88.4 55.092,69.1 C 54.887,45.584 54.476,43.102 49.979,38.223 46.758,34.729 38.485,32.172 33.2,33.037 m 270,0.167 c -6.923,0.647 -15.087,3.507 -14.881,5.212 0.203,1.687 4.041,9.285 4.585,9.077 C 307.987,41.727 316,43.103 316,51.459 l 0,2.941 -3.1,0.003 c -23.202,0.026 -33.043,7.566 -29.708,22.762 2.816,12.829 20.977,16.508 31.749,6.43 l 2.674,-2.501 1.669,3.653 1.668,3.653 4.291,0 c 2.361,0 4.576,-0.109 4.924,-0.243 1.084,-0.416 0.941,-39.481 -0.157,-43.015 -2.832,-9.112 -12.237,-13.3 -26.81,-11.938 m -218.945,0.63 c -12.119,2.934 -18.111,12.545 -17.769,28.505 0.322,15.045 6.661,23.343 19.914,26.069 7.96,1.637 20.769,0.3 25.5,-2.663 0.957,-0.599 1.457,-11.345 0.527,-11.345 -0.205,0 -1.78,0.515 -3.5,1.145 C 93.785,81.089 80.42,76.684 81.28,66.431 L 81.4,65 98.7,64.896 116,64.792 115.997,59.296 C 115.99,45.196 110.315,36.678 99.016,33.806 95.977,33.034 87.496,33.05 84.255,33.834 M 360.2,33.963 c -11.842,3.339 -17.836,13.41 -17.298,29.067 0.457,13.318 6.404,21.612 17.898,24.961 7.632,2.224 20.747,1.237 27.3,-2.054 l 1.5,-0.753 0,-5.424 0,-5.424 -1.3,0.282 c -0.715,0.155 -2.189,0.63 -3.277,1.056 -13.639,5.346 -24.523,2.219 -26.962,-7.745 -0.824,-3.366 -2.124,-3.129 17.164,-3.129 l 17.139,0 0.276,-1.47 C 393.479,58.855 392.104,49.438 389.948,44.902 385.512,35.567 372.059,30.62 360.2,33.963 M 190.807,53.1 c 0.009,23.53 0.376,25.861 4.834,30.698 6.7,7.269 21.318,7.278 28.995,0.019 2.868,-2.712 3.018,-2.67 3.96,1.113 0.586,2.356 0.931,3.064 1.577,3.237 1.274,0.342 9.563,0.262 10.13,-0.098 0.397,-0.253 0.481,-5.939 0.4,-27.094 L 240.6,34.2 l -7.1,-0.109 -7.1,-0.109 -0.012,12.909 C 226.363,71.754 224.642,76.594 215.637,77.115 206.61,77.638 206,76.053 206,52.066 206,36.404 205.931,34.459 205.367,34.243 205.019,34.109 201.599,34 197.767,34 l -6.967,0 0.007,19.1 M 95.351,44.092 c 3.488,1.045 6.649,5.575 6.649,9.528 0,1.422 -0.966,1.571 -10.2,1.571 -11.098,0 -11.075,0.011 -9.525,-4.789 1.741,-5.392 7.256,-8.053 13.076,-6.31 m 278.438,0.88 c 2.872,1.684 4.211,4.086 4.211,7.559 l 0,2.774 -1.5,-0.248 c -0.825,-0.137 -5.26,-0.25 -9.856,-0.253 l -8.356,-0.004 0.226,-2.191 c 0.77,-7.456 8.764,-11.452 15.275,-7.637 m -215.337,1.215 c 6.677,4.418 7.419,23.1 1.144,28.769 -4.103,3.707 -11.148,2.621 -14.065,-2.167 -2.368,-3.887 -3.115,-15.581 -1.35,-21.147 1.865,-5.882 9.32,-8.732 14.271,-5.455 M 315.935,67.5 c -0.163,5.174 -1.112,7.032 -4.691,9.177 C 304.9,80.478 298,78.073 298,72.06 c 0,-6.263 3.945,-8.441 15.935,-8.797 l 2.136,-0.063 -0.136,4.3"
             inkscape:connector-curvature="0"
             style="fill:#e34500;fill-rule:evenodd;stroke:none" />
        </g>
      </g>
      <g
         transform="translate(40.21304,863.10299)"
         id="g3623"
         style="display:block">
        <g
           id="svgg-3"
           transform="translate(-3.8482827,-1.261263)">
          <path
             id="path0-6"
             d="M 205.6851,111.1677 278.51,110.4 l 3.245,-2.155 c 1.785,-1.185 4.182,-2.675 5.328,-3.311 l 2.083,-1.158 -5.883,-3.248 c -3.236,-1.787 -7.323,-4.012 -9.083,-4.946 -1.76,-0.933 -4.91,-2.635 -7,-3.781 -2.09,-1.147 -5.96,-3.214 -8.6,-4.595 -2.64,-1.38 -4.98,-2.643 -5.2,-2.807 -0.22,-0.163 -3.1,-1.738 -6.4,-3.498 -8.356,-4.459 -36.458,-19.604 -38.4,-20.696 -5.19466,-3.135759 -16.03676,-8.943737 -16.03676,-8.943737 M 326.612,167.619 c -4.28,3.539 -9.328,5.723 -15.148,6.555 l -3.164,0.452 -1.281,2.387 c -0.705,1.313 -4.305,8.147 -8,15.187 -3.694,7.04 -7.481,14.24 -8.414,16 -4.967,9.372 -6.65588,11.55433 -7.48188,14.07233 l -0.84477,32.73192 1.47165,36.85525 44.737,-8.7015 1.487,-0.382 0.021,-38.488 c 0.023,-40.089 -0.349,-78.704 -0.758,-78.666 -0.13,0.013 -1.312,0.911 -2.625,1.997 M 58.622,215.3 c -0.17,11.935 -0.425,24.08 -0.566,26.988 -0.358,7.396 -0.473,7.186 2.944,5.387 2.225,-1.172 2.82,-1.68 2.896,-2.475 0.053,-0.55 0.273,-2.44 0.488,-4.2 1.463265,-12.67511 2.908664,-25.25445 4.347058,-38.04194 L 64.449215,197.16341 58.878,192.2 c 0,0 -0.03916,11.09619 -0.209158,23.03119 M 271.7375,306.883 c -2.64,0.42 -5.30172,0.91889 -6.20772,1.05589 -1.627,0.245 -2.62528,0.98311 -3.11828,3.20811 -1.365,6.158 -4.08147,11.02596 -9.85147,16.94096 -1.26788,1.30024 -3.15761,2.78366 -3.15761,2.78366 l 4.93045,7.55972 69.44995,-39.74015 M 144.401,308.447 c 0.002,1.136 1.287,10.95 2.351,17.953 0.418,2.75 0.994,7.048 1.28,9.55 0.39364,3.44012 1.27781,6.41271 1.27781,6.41271 l 24.91567,13.64304 c 10.451,5.748 12.81091,6.88336 13.56391,6.59436 0.322,-0.123 3.69955,-4.91275 7.07155,-10.15675 3.373,-5.244 7.53739,-11.42342 9.14539,-13.89542 3.528,-5.422 3.33322,-5.67988 0.0322,-8.12688 -5.662,-4.197 -10.75964,-11.09403 -11.90364,-15.85403 -0.239,-0.995 -1.0881,-1.60453 -9.2651,-2.70253 l -27.06981,-3.1025 c -9.447,-1.409 -11.2303,-1.70814 -11.2303,-1.70814"
             inkscape:connector-curvature="0"
             style="fill:#e34400;fill-rule:evenodd;stroke:none"
             sodipodi:nodetypes="cccccccccccccccccccccccccccccccccccccccccccccccccccccccc" />
          <path
             id="path1"
             d="m 190.2,52.364 c -1.988,1.104 -9.572,5.022 -26.4,13.636 -4.84,2.477 -10.6,5.447 -12.8,6.599 -2.2,1.151 -8.68,4.492 -14.4,7.423 -5.72,2.931 -13.734,7.05 -17.808,9.153 -4.074,2.104 -10.243,5.265 -13.708,7.025 -7.342,3.729 -7.452,3.921 -3.484,6.075 4.319,2.345 8.257,4.868 10.688,6.849 l 2.304,1.876 81.67,0.103 c 3.27081,0.0134 6.34248,0.0548 9.4231,0.0647 -0.34834,-1.37591 -11.37665,-53.254705 -13.12186,-59.906437 L 190.2,52.364 M 59.492,175.674 c -0.104,9.204 -0.34,15.539 -0.614,16.526 l 9.853058,10.75806 c 0,0 1.628942,-12.24306 2.679942,-20.75806 1.461,-11.833 1.604,-10.934 -2.111,-13.248 -1.705,-1.062 -4.571,-3.342 -6.37,-5.067 l -3.27,-3.137 -0.168,14.926 M 273.205,241 c -2.354,4.4 -5.415,10.16 -6.801,12.8 -1.387,2.64 -4.487,8.459 -6.89,12.93 -4.922,9.158 -4.991,9.45 -2.986,12.584 2.838,4.437 5.238,10.081 6.287,14.786 0.282,1.265 0.577,2.3 0.656,2.3 6.80098,-1.31631 13.529,-2.98775 20.279,-4.5405 l -0.62688,-69.58717 M 249.4033,330.87124 c -5.96301,4.67383 -13.355,7.46653 -21.4773,7.81476 -3.011,0.129 -5.647,0.343 -5.857,0.474 -0.546,0.342 -17.333,26.799 -17.564,27.682 -0.133,0.507 3.476,-1.365 11.752,-6.098 6.569,-3.757 17.073,-9.754 23.343,-13.328 3.46977,-1.97782 14.73287,-8.98466 14.73287,-8.98466 M 106.305,305.89796 c -2.039,1.969 -5.011,4.416 -6.606,5.438 -3.674,2.355 -3.747,2.146 1.801,5.097 2.585,1.375 5.51,2.95 6.5,3.499 0.99,0.55 2.34,1.299 3,1.665 0.66,0.365 3.81,2.073 7,3.795 4.841,2.612 19.224,10.397 27,14.613 0.61904,0.33597 2.25784,1.23439 4.31758,2.36645 l -4.7479,-35.31755 c 0,0 -6.99553,-0.69869 -10.36968,-1.18186 -2.42,-0.362 -6.02,-0.858 -8,-1.102 -1.98,-0.244 -4.5,-0.607 -5.6,-0.807 -1.1,-0.2 -3.62,-0.529 -5.6,-0.733 -1.98,-0.203 -3.912,-0.491 -4.294,-0.64 -0.517,-0.202 -1.643,0.645 -4.401,3.308"
             inkscape:connector-curvature="0"
             style="fill:#ed7f4e;fill-rule:evenodd;stroke:none"
             sodipodi:nodetypes="cccsccccccccccccccccccccccccccccccscccccccccccssccc" />
          <path
             id="path2"
             d="m 317.584,111.442 c -0.911,2.397 -0.455,3.065 2.525,3.698 3.12,0.663 2.903,0.758 3.238,-1.428 0.406,-2.65 -4.834,-4.714 -5.763,-2.27 M 86.6,113.062 c -6.885,1.454 -8.649,2.189 -12.467,5.195 -15.439,12.155 -11.437,36.449 7.038,42.733 24.941,8.483 44.119,-22.235 25.46,-40.78 -5.279,-5.247 -14.111,-8.399 -20.031,-7.148 m 201.689,8.638 c -0.11,3.135 -0.33,6.102 -0.489,6.593 -0.386,1.191 0.928,1.684 5.314,1.994 2.559,0.181 3.277,0.359 3.118,0.774 -0.228,0.594 5.154,0.803 6.009,0.233 0.243,-0.162 0.56,-2.004 0.705,-4.094 0.146,-2.09 0.373,-4.721 0.505,-5.846 l 0.24,-2.047 -6.945,-1.657 c -3.82,-0.912 -7.241,-1.656 -7.602,-1.654 -0.567,0.004 -0.682,0.773 -0.855,5.704 m -96.45983,34.21891 c -9.70212,23.88222 -21.61282,49.45056 -21.29084,55.97335 0,0 1.63047,2.61731 3.17367,5.00374 1.602,2.477 4.496,7.114 6.432,10.304 1.936,3.19 4.559,7.42 5.828,9.4 1.269,1.98 5.92,9.27 10.335,16.2 4.415,6.93 8.537,13.397 9.16,14.37 1.723,2.692 2.042,2.774 5.198,1.328 9.163,-4.198 20.587,-4.44 29.735,-0.631 4.376,1.823 5.16,1.865 6.121,0.333 0.641,-1.022 6.254,-11.67 20.665,-39.2 1.612,-3.08 3.421,-6.5 4.02,-7.6 0.599,-1.1 2.761,-5.24 4.804,-9.2 2.043,-3.96 3.843,-7.38 4,-7.6 0.157,-0.22 1.784,-3.28 3.616,-6.8 1.832,-3.52 3.471,-6.58 3.643,-6.8 0.866,-1.109 8.749,-17.048 8.572,-17.333 -0.112,-0.182 -1.248,-0.559 -2.523,-0.837 -20.049,-4.37 -32.219,-29.257 -23.661,-48.385 0.629,-1.406 1.143,-2.621 1.143,-2.7 0,-0.08 -13.905,-0.145 -30.9,-0.145 l -31.046,0 m 128.743,12.3 c -0.002,1.705 -0.121,4.074 -0.264,5.264 l -0.26,2.165 3.764,-0.274 c 6.539,-0.475 6.129,-0.076 6.62,-6.455 l 0.251,-3.275 -2.512,-0.262 c -1.383,-0.145 -3.657,-0.263 -5.055,-0.263 l -2.541,0 -0.003,3.1 m -20.956,5.6 c -0.354,1.925 -0.642,4.148 -0.642,4.941 l 10e-4,1.44 3.3,0.25 c 1.815,0.137 4.217,0.366 5.338,0.508 l 2.039,0.258 0.269,-3.23 c 0.412,-4.942 0.059,-6.467 -1.497,-6.467 -0.687,0 -2.66,-0.27 -4.384,-0.6 -1.725,-0.33 -3.281,-0.6 -3.459,-0.6 -0.177,0 -0.612,1.575 -0.965,3.5 m -36.124,7.974 c -0.468,4.729 -0.914,4.196 3.713,4.438 4.128,0.216 4.551,0.048 4.564,-1.812 0.003,-0.495 0.163,-0.9 0.356,-0.9 0.193,0 0.454,-0.519 0.581,-1.153 0.127,-0.635 0.345,-1.609 0.484,-2.165 0.285,-1.134 -1.041,-1.549 -6.663,-2.083 l -2.647,-0.251 -0.388,3.926 m 23.967,7.577 0.116,3.549 2.513,0.277 c 1.382,0.153 2.867,0.39 3.3,0.527 0.74,0.235 0.787,0.049 0.787,-3.096 l 0,-3.345 -2.735,-0.469 c -1.504,-0.258 -3.041,-0.587 -3.416,-0.731 -0.616,-0.236 -0.67,0.083 -0.565,3.288 m -186.303,6.574 c -1.695,2.31 -5.922,5.846 -8.581,7.18 -0.99,0.496 -1.89,1.026 -2,1.177 -1.217,1.671 -12.562,4.417 -18.249,4.417 l -4.449,0.001 -0.22,1.9 -9.312,66.341 c -0.255,0.922 1.637,1.348 6.031,1.356 19.861,0.034 34.076,16.097 33.72,38.103 l -0.121,7.501 1.845,-10e-4 c 1.015,0 2.815,0.185 4,0.41 1.185,0.226 4.225,0.585 6.755,0.798 9.72,0.818 15.01424,1.48788 15.01424,1.48788 6.51403,-18.04207 16.17158,-48.17741 21.26276,-68.49588 l -2.477,-3.6 c -2.292,-3.332 -11.306,-16.745 -32.328,-48.1 -4.609,-6.875 -8.61,-12.5 -8.892,-12.5 -0.282,0 -1.181,0.911 -1.999,2.025 m -44.326,94.609 c -25.012,5.247 -27.187,39.41 -3.042,47.77 14.429,4.997 28.712,-3.962 32.398,-20.323 3.369,-14.95 -13.545,-30.764 -29.356,-27.447 m 150.525,21.365 c -20.041,3.176 -27.733,28.674 -12.817,42.484 10.968,10.154 27.745,8.677 36.734,-3.234 1.914,-2.536 3.303,-5.247 3.303,-6.445 0,-0.442 0.143,-0.804 0.319,-0.804 0.175,0 0.535,-1.263 0.8,-2.807 2.97,-17.322 -11.191,-31.911 -28.339,-29.194"
             inkscape:connector-curvature="0"
             style="fill:#28a8a9;fill-rule:evenodd;stroke:none"
             sodipodi:nodetypes="cccccccccccccscccccccccssscccccssssccccscccccccccscccccccccscsccccscccccccccscccccccccccccccccccccsccccccccsscc" />
          <path
             id="path3"
             d="m 123.303,122.5 c 0.109,0.495 0.693,2.7 1.3,4.9 0.89,3.227 1.151,5.198 1.35,10.2 l 0.247,6.2 1.919,3 c 1.056,1.65 2.801,4.35 3.878,6 1.078,1.65 2.696,4.17 3.598,5.6 0.901,1.43 3.746,5.887 6.322,9.905 2.575,4.018 9.177,14.368 14.671,23 5.493,8.632 13.95033,20.58726 13.95033,20.58726 l 0.183,-0.40052 L 208.583,122.5 l 0.271,-0.9 -42.874,0 -42.873,0 0.196,0.9 M 142.61424,292.29588 186.2,296.97 l 3.2,0.227 1.739,-5.099 c 1.905,-5.584 3.148,-8.026 5.868,-11.529 1.965,-2.531 1.998,-2.627 1.338,-3.895 -11.80298,-17.42301 -22.73922,-35.40687 -34.468,-52.874"
             inkscape:connector-curvature="0"
             style="fill:#b5dcd9;fill-rule:evenodd;stroke:none"
             sodipodi:nodetypes="ccccccccccccccccccccccc" />
        </g>
      </g>
    </g>
  </g>
</svg>
