<?xml version="1.0" encoding="UTF-8"?>
<!DOCTYPE svg PUBLIC "-//W3C//DTD SVG 1.1//EN" "http://www.w3.org/Graphics/SVG/1.1/DTD/svg11.dtd">
<!-- Creator: CorelDRAW 2017 -->
<svg xmlns="http://www.w3.org/2000/svg" xml:space="preserve" width="1381px" height="1012px" version="1.1" style="shape-rendering:geometricPrecision; text-rendering:geometricPrecision; image-rendering:optimizeQuality; fill-rule:evenodd; clip-rule:evenodd"
viewBox="0 0 1690.76 1239.33"
 xmlns:xlink="http://www.w3.org/1999/xlink">
 <defs>
  <style type="text/css">
   <![CDATA[
    .fil3 {fill:black}
    .fil0 {fill:#0BA14B}
    .fil2 {fill:#0F75BC}
    .fil5 {fill:#134325}
    .fil6 {fill:#167D40}
    .fil9 {fill:#185888}
    .fil8 {fill:#7A7512}
    .fil7 {fill:#982121}
    .fil4 {fill:#ED1C24}
    .fil1 {fill:#FEF200}
   ]]>
  </style>
 </defs>
 <g id="Layer_x0020_1">
  <metadata id="CorelCorpID_0Corel-Layer"/>
  <g id="_2364794146832">
   <path class="fil0" d="M1200.22 697.93c-2.26,-6.63 -9.86,-14.86 -14.53,-23.73 -14.99,-28.47 -23,-56.67 -21.54,-90.84 2.72,-64.12 37.43,-111.37 86.42,-140.95 54.75,-33.08 129.12,-26.48 178.24,5.55 101.87,66.45 107.61,222.63 -9.27,291.86 -37.68,22.32 -75.31,25.1 -122.18,18.38 -3.26,9.58 -13.18,63.01 -11.84,71.16 112.07,19.35 134.08,-32.19 220.46,3.04 138.39,56.43 140.36,241.69 21.05,307.41 -29.96,16.51 -64.15,25.67 -103.19,21.33 -50.96,-5.67 -64.79,-24.37 -88.46,-35.34 -13.7,35.93 -74.7,30.78 -91.52,-11.03 -6.22,-15.43 -5.01,-27.6 -23.16,-24.46 7.06,22.31 30.44,53.02 47.76,70.85 135.44,139.5 367.64,66.71 410.2,-111.52 20.61,-86.31 -6.51,-177.71 -67.13,-233.25 -15.96,-14.63 -22.83,-21.14 -43.92,-33.87 -7.6,-4.59 -16.76,-9.44 -25.67,-13.24 -8.1,-3.46 -21.44,-6.72 -27.64,-11.82l32.91 -47.21c73.66,-135.38 14.13,-297.74 -140.35,-351.74 2.77,-12.49 55.64,-53.6 63.27,-145.11 -5.81,3.75 -7.6,9.82 -16.7,14.19 -23.29,11.2 -43.73,-14.11 -54.55,-23.91 -6.34,33.14 -8.14,47.68 -23.64,74.27 -12.3,21.12 -18.21,24.68 -32.83,39.87 -36.87,38.33 -78.1,30.48 -145.14,72.92 -11.41,7.23 -7.96,5.38 -13.29,35.91 -2.41,13.81 -4.98,27.77 -7.33,41.66 -14.19,83.92 -37.95,145.94 12.48,217.57l8.27 10.25c2.96,2.53 -0.33,0.59 2.82,1.8z"/>
   <path class="fil1" d="M1114.21 372.38c-8.04,-2.43 -8.46,-9.17 -15.93,-16.61 -14.11,-14.03 -18.14,-18.91 -33.21,-31.04 -62.32,-50.13 -151.85,-63.77 -228.57,-37.74 -15.57,5.28 -31,12.41 -43.95,20.28l-38.9 27.18c2.26,4.94 31.1,29.58 38.04,38.8 2.95,3.93 7.55,10.18 11.42,13.78 8.08,-3.23 50.99,-48.15 128.58,-40.53 25.12,2.46 45.23,9.13 64.96,19.62 81.51,43.33 114.53,144.22 71.66,228.81 -47.07,92.89 -168.09,127.71 -265.22,50.93 -4.81,-3.81 -6.2,-7.16 -10.8,-11.13 -10.7,-9.24 -26.68,-33.27 -33.78,-50.73 -13.74,-33.8 -18.58,-72.72 -8.4,-109.45 4.38,-15.77 -0.23,-18.18 -7.62,-30.13 -8.65,-14 -28.24,-36 -40.31,-43.01 -11.9,16.45 -23.94,58.1 -27.24,82.51 -28.75,212.57 220.97,371.18 407.38,211.19 5.59,-4.8 9.15,-10.12 14.99,-14.42 7.96,7.05 14.75,45.71 70.3,94.37 19.24,16.86 75.07,50.62 112.19,52.09 2.12,-15.19 12.32,-59.25 11.23,-70.55 -83.38,-17.11 -153.18,-95.49 -135.11,-199.36l76.34 -432.55c2.01,-11.3 5.17,-24.69 6.4,-35.85 0.32,-2.93 -8.83,-67.82 -61.15,6.58 -3.28,4.66 -4.46,6.61 -8.9,11.37 -12.92,13.84 -9.98,19.99 -15.1,49.36 -4.19,24.02 -8.41,47.84 -12.63,71.71 -3.54,20.06 -21.77,135.52 -26.67,144.52z"/>
   <path class="fil2" d="M280.46 347.97l5.88 1.92 1.11 -7.1c1.28,-25.69 9.43,-42.5 12.6,-63.93 -40.1,-4.8 -64.2,-8.33 -104.89,0.79 -155.11,34.76 -238.9,208.5 -159.96,354.64 59.44,110.03 201.65,156.77 312.91,104.44 53.9,-25.36 90.71,-60.87 117.12,-111.22 44.17,-84.23 31.45,-190.02 -27.75,-263.56 -10.43,-12.96 -46.08,-48.06 -60.44,-52.4 -8.39,17.4 -9.58,52.19 -7.05,72.46 2.52,20.09 4.79,16.75 13.89,28.45 97.17,124.93 -17.57,315.08 -183.94,268.5 -74.94,-20.98 -141.65,-103.17 -117.83,-204.93 14.83,-63.38 66.22,-109.59 123.69,-124.77 38.92,-10.28 52.25,-2.07 74.66,-3.29z"/>
   <path class="fil3" d="M601.91 776.51c-43.19,0.02 -87.29,-12.23 -123.91,-33.71l-6.89 -5.63c10.92,-12.42 31.41,-23.29 52.95,-28.84 66.69,-17.16 78.62,9.66 140.01,-15.49 31.57,-12.93 44.9,-27.71 51.82,-30.25 5.35,9.53 14.63,18.88 21.85,26.67 4.61,4.95 8.2,7.64 12.96,12.42 6.09,6.11 8.16,6.21 13.35,11.82 -6.92,12.65 -53.95,38.38 -67.5,43.96 -28.59,11.77 -60.35,19.03 -94.64,19.05zm1088.85 205.02l0 16.74c-1.34,39.45 -12.22,79.2 -32.7,117.06 -27.89,51.57 -74.59,88.28 -130.31,109.76 -21.61,8.34 -44.71,12.98 -68.24,14.24l-26.5 0c-60.37,-3.17 -120.86,-27.69 -163.7,-68.87 -17.1,-16.42 -53.62,-62.6 -55.34,-83.3 34.86,-16.73 25.26,27.97 52.36,47.39 16.14,11.56 39.71,15.23 55.71,-0.19 0.25,-0.24 0.61,-0.59 0.86,-0.83 4.01,-4.04 7.94,-8.69 9.42,-14.25 19.25,0.43 76.52,73.11 190.51,16.37 75.06,-37.37 110.47,-147.19 64.09,-225.32 -20.67,-34.81 -50.53,-62.03 -89.09,-74.91 -39.45,-13.18 -66.39,-10.24 -106.45,-2 -56.78,11.68 -120.81,6.51 -171.8,-19.02 -18.71,-9.37 -35.03,-18.96 -51.28,-31.57 -4.59,-3.56 -7.21,-6.63 -11.82,-10.15 -19.37,-14.84 -54.19,-61.46 -59.17,-82.85 -7.27,1.94 -10.47,8.35 -15.62,13.12 -14.87,13.78 -32.52,24.39 -49.97,34.57 -53.33,31.08 -132.13,35.8 -187.41,17.63 -52.63,-17.29 -40.17,-18.14 -75.01,-36.58 -5.34,3.57 -10.16,7.99 -15.2,11.86 -4.83,3.71 -9.44,6.82 -14.89,10.47 -46.52,31.13 -106.87,45.79 -164.11,39.99 -14.24,-1.44 -28.93,-4.95 -42.18,-8.55 -16.07,-4.37 -60.17,-20.54 -69.65,-33.48 3.96,-14.83 38.83,-29.25 50.94,-33.59 59.86,-21.44 79.52,5.67 142.88,-16.05 24.94,-8.55 34.03,-17.1 53.03,-29.82 -3.08,-13.22 -34.11,-52.51 -37.2,-89.61 -13.53,7.15 -24.39,14.9 -39.84,21.02 -38.2,15.14 -85.41,24.8 -128.07,18.39 -8.65,-1.29 -17.53,-3.75 -24.83,-3.91 -1.12,13.43 -11.8,28.1 -18.07,39.42 -3.35,6.05 -7.3,11.69 -11.39,17.36 -4.32,6 -9.45,10.9 -12.81,15.92 3.65,-0.97 24.88,-20.6 30.03,-25.75 3.52,-3.52 4.9,-5.41 8.85,-8.06 6.82,1.82 10.1,7.58 14.77,12.28 8.9,8.96 18.69,14.75 29.5,21.23 7.54,4.51 12.47,3.1 13.22,12.14 -13.92,0.31 -36.21,10.48 -46.8,15.76 -15.43,7.7 -23.74,18.27 -36.05,26.51 -2.98,-2.6 -5.69,-5.2 -8.97,-7.94 -4.06,-3.39 -5.29,-3.77 -9.24,-7.67 -5.6,-5.54 -11.38,-10.21 -15.6,-16.52l-22.69 17.89c-62.33,44.98 -146.95,61.23 -222.26,36.01 -37.92,-12.7 -71.52,-33.06 -99.55,-61.08 -13.75,-13.76 -25.8,-28.24 -36.25,-44.9 -20.56,-32.77 -33.55,-71.82 -36.87,-111.89l0 -40.44c1.27,-14.97 3.98,-29.84 8.25,-44.33 9.88,-33.59 24.89,-68.18 48.81,-93.21 19.62,-20.54 27.07,-30.34 52.5,-47.26 17.63,-11.73 30.94,-18.84 52.24,-27.22 36.97,-14.55 94.83,-20.36 140.85,-9.64 8.21,-35.25 38.22,-69.24 62.96,-94.27 58,-58.67 160.39,-80.71 238.22,-56.43 21.1,6.59 38.68,13.61 55.67,23.8 9.54,5.72 41.09,22.69 42.17,35.6 -23.46,5.47 -27.91,6.09 -51.7,-0.71 -18.4,-5.26 -35.99,-8.97 -42.64,9.51 -3.87,10.74 2.3,20.78 -10.98,17.45 -26.23,-6.59 -37.03,-15.38 -80.43,-10.8 -17.91,1.9 -33.5,6.51 -48.07,12.8 -26.98,11.65 -50.37,30.86 -67.13,54.6 -6.06,8.58 -19.26,28.05 -20.3,40.58 8.84,5.91 20.53,13.42 28.32,20.71 7.95,7.43 18.3,14.6 24.1,23.25 26.65,-17.85 30.31,-25.98 65.35,-42.86 36.92,-17.78 90.9,-27.11 134.93,-20.47 76.97,11.6 100.58,40.64 115.89,44.73 12.85,-8.61 24.71,-19.48 38.34,-27.6 44.26,-26.37 98.15,-42.54 156.85,-34.02 51.78,7.51 98.8,25.01 134.08,58.66 6.47,6.17 28.42,24.27 30.86,33.39 5.47,-4.01 2.49,-0.78 3.95,-9.57l13.68 -77.62c5.01,-30.1 10.43,-57.45 15.46,-87.68 2.71,-16.28 5.36,-28.6 7.97,-44.44 3.44,-20.89 0.52,-26.3 13.49,-38.93 6.57,-6.41 56.9,-92.3 80.34,-23.71 2.17,6.34 -0.49,13.2 -1.8,21.09 -5.4,32.47 -49.9,270.84 -50.24,286.22 48.73,-32.63 64.91,-27.77 104.81,-45.67 96.2,-43.14 92.84,-137.85 98.08,-148.76 6.76,1.8 6.17,3.87 9.9,8.69 26.27,33.83 58.01,28.08 66.18,-7l5.08 0c0,52.32 -16.5,105.9 -49.54,146.58 -4.28,5.27 -9.63,9.34 -11.33,15.73 12.62,0.28 44.65,18.91 54.44,25.03 24.73,15.47 44.25,35.11 62.62,57.41 31.17,37.84 52,94.56 52.07,144.06 0.08,55.83 -13.46,107.49 -45.44,150.8l-17.17 21.72c17.41,4.05 41.51,16.89 55.13,26.03l53.49 46.26c4.34,4.36 5.53,6.04 9.25,11.03 32.38,43.51 49.48,92.49 51.2,142.44zm-490.54 -283.6c4.47,1.49 0.95,-1.94 5.47,3.63 0.51,0.63 2.44,4.04 2.96,4.89 3.14,1.53 1.12,0.01 3.63,2.01l6.67 8.76c-7.48,-4.47 -9.12,-4.97 -12.39,-10.65l-6.34 -8.64zm-746.19 26.51c-7.3,-2.1 -24.86,-17.95 -28.86,-24.47 5.96,-7.86 29.43,-28.49 38.87,-36.44 5.17,-4.35 7.52,-8.19 12.67,-12.17 7.79,4.49 24.75,24.63 45.98,33.23 -3.92,3.42 -14.54,5.79 -19.77,7.73 -6.7,2.49 -12.58,5.14 -18.7,8.35 -12.39,6.51 -23.98,13.55 -30.19,23.77zm-16.12 -46.45l0 0zm732.1 -81.15c0,-29.58 3.42,-52.31 15.18,-76.12 4.1,-8.28 8.75,-17.02 14.26,-24.63 11.39,-15.73 15.09,-19.12 28.42,-30.75 73.67,-64.29 192.47,-49.18 247.85,38.83 3.57,5.67 4.56,6.15 7.34,12.94 16.28,39.65 16.65,38.91 16.65,86.49 0,29.26 -14.3,61.47 -29.73,83.56 -26.55,38.02 -76.9,68.61 -124.13,68.61l-21.98 0c-52.76,0 -98.76,-34.54 -124.41,-70.03 -6.24,-8.64 -9.59,-15.2 -14.26,-24.63 -7.73,-15.56 -15.19,-40.93 -15.19,-64.27zm-686.75 3.16c2.68,-20.25 10.3,-27.36 13.1,-69.98 16.87,-1.96 75.48,17.4 138.3,-28.95 4.19,-3.1 11.07,-9.17 14.81,-10.56 3.04,3.81 7.01,9.15 10.67,12.63 6.51,6.17 7.46,4.39 7.65,15.8 0.25,15.39 3.35,30.39 3.54,44.08 -17.36,14.44 -54.61,29.95 -80.88,35.81 -39.71,8.85 -67.5,7.52 -107.19,1.17zm267.44 -75.87c0,-35.69 3.37,-30.32 5.07,-50.72 0.23,0.34 0.54,0.49 0.62,1.07 0.08,0.59 0.49,0.84 0.61,1.08 9.97,20.9 12.23,56.19 8.84,80.63 -0.97,7.01 -3.15,13.28 -3.31,20.36 -0.23,-0.34 -0.53,-1.32 -0.62,-1.07l-7.43 -23c-2,-9.47 -3.78,-17.61 -3.78,-28.35zm-667.85 -3.38c0,-96.79 72.43,-169.07 170.76,-169.07 13.34,0 21.24,3.14 32.13,3.38 0,84.38 31.02,150.78 94.15,201.73 5.99,4.83 16.97,14.45 24.2,16.38 -1.87,3.9 -3.09,7.89 -5.04,11.86 -7.51,15.22 -9.87,20.51 -21.01,34.79 -34.33,44.03 -94.97,70.65 -156.83,60.14 -47.46,-8.06 -86.72,-34.69 -112.27,-73.71 -14.22,-21.71 -26.09,-56.45 -26.09,-85.5zm321.24 -57.48l0 0zm0 0c-0.26,-0.3 -0.66,-1.18 -0.77,-0.92l-13.34 -20.47c-4.34,-8.6 -9,-16.31 -11.25,-25.95 6.45,4.72 24.47,36.58 25.36,47.34zm404.09 -71.01c6.13,-9.15 31.96,-23.28 42.01,-27.32 80.98,-32.56 166.36,-4.24 210.01,71.19 44.95,77.69 17.5,178.62 -62.72,224.88 -57.61,33.22 -125.31,25.41 -175.77,-8.38 1.09,-4.65 14.26,-31.69 19.22,-48.41 14.2,-47.88 12.99,-107.98 -4.24,-154.24 -10,-26.83 -17,-35.83 -28.51,-57.72zm-348.29 -8.46c5.95,3.99 8.72,9.58 13.91,14.83 5.02,5.07 9.14,10.11 14.83,13.91 9.45,-6.33 21.05,-19.66 41.27,-28.04 61.54,-25.54 115.23,-21.63 166.69,12.83 -2.64,11.33 -28.74,52.02 -28.74,104.82 -3.98,-2.66 -5.47,-6.01 -8.85,-9.74 -3.26,-3.58 -5.98,-6.33 -9.75,-8.85 -6.09,1.62 -58.18,53.52 -129.5,43.27 -6.95,-1 -16.17,-2.7 -22.67,-2.7 0,-93.72 -33.42,-124.16 -37.19,-140.33zm0 0l-1.69 -1.69 1.69 1.69zm-1.69 -1.69l0 0zm-18.11 -28.83c7.49,-11.48 45.74,-35.12 64.85,-42.8 116.39,-46.8 235.65,-7.93 300.53,89.58 32.79,49.28 45.79,109.89 36.97,170.16 -2.6,17.74 -16.77,71.37 -27.49,78.22 -15.25,-10.07 -29.79,-27.52 -40.01,-43.74 -8.02,-12.72 -10.98,-14.44 -6.52,-30.84 16.8,-61.76 -8.25,-119.39 -41.57,-157.76 -25.49,-29.35 -70.99,-50.77 -113.72,-53.22 -25.2,-1.45 -50.23,2.58 -72.13,10.74 -27.41,10.23 -33.36,18.25 -52.37,31.28l-48.54 -51.62zm-152.64 -10.49l-0.27 7.22c-6.06,-0.22 -2.8,0.66 -6.72,-2.04 -22.41,1.22 -35.74,-6.99 -74.66,3.29 -57.47,15.18 -108.86,61.39 -123.69,124.77 -23.82,101.76 42.89,183.95 117.83,204.93 166.37,46.58 281.11,-143.57 183.94,-268.5 -9.1,-11.7 -11.37,-8.36 -13.89,-28.45 -2.53,-20.27 -1.34,-55.06 7.05,-72.46 14.36,4.34 50.01,39.44 60.44,52.4 59.2,73.54 71.92,179.33 27.75,263.56 -26.41,50.35 -63.22,85.86 -117.12,111.22 -111.26,52.33 -253.47,5.59 -312.91,-104.44 -78.94,-146.14 4.85,-319.88 159.96,-354.64 40.69,-9.12 64.79,-5.59 104.89,-0.79 -3.17,21.43 -11.32,38.24 -12.6,63.93zm912.77 355.14c-3.15,-1.21 0.14,0.73 -2.82,-1.8l-8.27 -10.25c-50.43,-71.63 -26.67,-133.65 -12.48,-217.57 2.35,-13.89 4.92,-27.85 7.33,-41.66 5.33,-30.53 1.88,-28.68 13.29,-35.91 67.04,-42.44 108.27,-34.59 145.14,-72.92 14.62,-15.19 20.53,-18.75 32.83,-39.87 15.5,-26.59 17.3,-41.13 23.64,-74.27 10.82,9.8 31.26,35.11 54.55,23.91 9.1,-4.37 10.89,-10.44 16.7,-14.19 -7.63,91.51 -60.5,132.62 -63.27,145.11 154.48,54 214.01,216.36 140.35,351.74l-32.91 47.21c6.2,5.1 19.54,8.36 27.64,11.82 8.91,3.8 18.07,8.65 25.67,13.24 21.09,12.73 27.96,19.24 43.92,33.87 60.62,55.54 87.74,146.94 67.13,233.25 -42.56,178.23 -274.76,251.02 -410.2,111.52 -17.32,-17.83 -40.7,-48.54 -47.76,-70.85 18.15,-3.14 16.94,9.03 23.16,24.46 16.82,41.81 77.82,46.96 91.52,11.03 23.67,10.97 37.5,29.67 88.46,35.34 39.04,4.34 73.23,-4.82 103.19,-21.33 119.31,-65.72 117.34,-250.98 -21.05,-307.41 -86.38,-35.23 -108.39,16.31 -220.46,-3.04 -1.34,-8.15 8.58,-61.58 11.84,-71.16 46.87,6.72 84.5,3.94 122.18,-18.38 116.88,-69.23 111.14,-225.41 9.27,-291.86 -49.12,-32.03 -123.49,-38.63 -178.24,-5.55 -48.99,29.58 -83.7,76.83 -86.42,140.95 -1.46,34.17 6.55,62.37 21.54,90.84 4.67,8.87 12.27,17.1 14.53,23.73zm-794.44 -130.09c-21.98,-9.55 -53.49,-43.83 -66.83,-61.43 -65.8,-86.87 -59.25,-208.03 0.22,-288.96 29.96,-40.77 84.98,-84.99 159.81,-95.63 84.21,-11.97 145.82,17.46 194.1,55.47 -13.99,12.24 -41.53,-2.49 -57.37,-4.82 -28.7,-4.2 -30.09,10.77 -37.18,30.32 -10.45,-1.64 -22.03,-6.98 -34.74,-9.06 -38.2,-6.26 -72.03,-0.51 -105.78,15.79 -83.77,40.46 -118.63,145.35 -76.58,229.09 16.79,33.44 28.5,31.98 31.52,54.81 2.89,21.78 3.02,56.52 -7.17,74.42zm708.43 -195.46c4.9,-9 23.13,-124.46 26.67,-144.52 4.22,-23.87 8.44,-47.69 12.63,-71.71 5.12,-29.37 2.18,-35.52 15.1,-49.36 4.44,-4.76 5.62,-6.71 8.9,-11.37 52.32,-74.4 61.47,-9.51 61.15,-6.58 -1.23,11.16 -4.39,24.55 -6.4,35.85l-76.34 432.55c-18.07,103.87 51.73,182.25 135.11,199.36 1.09,11.3 -9.11,55.36 -11.23,70.55 -37.12,-1.47 -92.95,-35.23 -112.19,-52.09 -55.55,-48.66 -62.34,-87.32 -70.3,-94.37 -5.84,4.3 -9.4,9.62 -14.99,14.42 -186.41,159.99 -436.13,1.38 -407.38,-211.19 3.3,-24.41 15.34,-66.06 27.24,-82.51 12.07,7.01 31.66,29.01 40.31,43.01 7.39,11.95 12,14.36 7.62,30.13 -10.18,36.73 -5.34,75.65 8.4,109.45 7.1,17.46 23.08,41.49 33.78,50.73 4.6,3.97 5.99,7.32 10.8,11.13 97.13,76.78 218.15,41.96 265.22,-50.93 42.87,-84.59 9.85,-185.48 -71.66,-228.81 -19.73,-10.49 -39.84,-17.16 -64.96,-19.62 -77.59,-7.62 -120.5,37.3 -128.58,40.53 -3.87,-3.6 -8.47,-9.85 -11.42,-13.78 -6.94,-9.22 -35.78,-33.86 -38.04,-38.8l38.9 -27.18c12.95,-7.87 28.38,-15 43.95,-20.28 76.72,-26.03 166.25,-12.39 228.57,37.74 15.07,12.13 19.1,17.01 33.21,31.04 7.47,7.44 7.89,14.18 15.93,16.61z"/>
   <path class="fil4" d="M405.78 567.84c10.19,-17.9 10.06,-52.64 7.17,-74.42 -3.02,-22.83 -14.73,-21.37 -31.52,-54.81 -42.05,-83.74 -7.19,-188.63 76.58,-229.09 33.75,-16.3 67.58,-22.05 105.78,-15.79 12.71,2.08 24.29,7.42 34.74,9.06 7.09,-19.55 8.48,-34.52 37.18,-30.32 15.84,2.33 43.38,17.06 57.37,4.82 -48.28,-38.01 -109.89,-67.44 -194.1,-55.47 -74.83,10.64 -129.85,54.86 -159.81,95.63 -59.47,80.93 -66.02,202.09 -0.22,288.96 13.34,17.6 44.85,51.88 66.83,61.43z"/>
   <path class="fil4" d="M440.09 353.28l48.54 51.62c19.01,-13.03 24.96,-21.05 52.37,-31.28 21.9,-8.16 46.93,-12.19 72.13,-10.74 42.73,2.45 88.23,23.87 113.72,53.22 33.32,38.37 58.37,96 41.57,157.76 -4.46,16.4 -1.5,18.12 6.52,30.84 10.22,16.22 24.76,33.67 40.01,43.74 10.72,-6.85 24.89,-60.48 27.49,-78.22 8.82,-60.27 -4.18,-120.88 -36.97,-170.16 -64.88,-97.51 -184.14,-136.38 -300.53,-89.58 -19.11,7.68 -57.36,31.32 -64.85,42.8z"/>
   <path class="fil4" d="M601.91 776.51c34.29,-0.02 66.05,-7.28 94.64,-19.05 13.55,-5.58 60.58,-31.31 67.5,-43.96 -5.19,-5.61 -7.26,-5.71 -13.35,-11.82 -4.76,-4.78 -8.35,-7.47 -12.96,-12.42 -7.22,-7.79 -16.5,-17.14 -21.85,-26.67 -6.92,2.54 -20.25,17.32 -51.82,30.25 -61.39,25.15 -73.32,-1.67 -140.01,15.49 -21.54,5.55 -42.03,16.42 -52.95,28.84l6.89 5.63c36.62,21.48 80.72,33.73 123.91,33.71z"/>
   <path class="fil4" d="M483.26 600c39.69,6.35 67.48,7.68 107.19,-1.17 26.27,-5.86 63.52,-21.37 80.88,-35.81 -0.19,-13.69 -3.29,-28.69 -3.54,-44.08 -0.19,-11.41 -1.14,-9.63 -7.65,-15.8 -3.66,-3.48 -7.63,-8.82 -10.67,-12.63 -3.74,1.39 -10.62,7.46 -14.81,10.56 -62.82,46.35 -121.43,26.99 -138.3,28.95 -2.8,42.62 -10.42,49.73 -13.1,69.98z"/>
   <path class="fil0" d="M1208.79 1056.3l3.22 13.67c42.71,-9.37 43.05,17.71 52.37,37.75 9.58,20.58 40.15,33.82 55.15,3.11 -0.68,-1.24 -14.98,-17.29 -24.15,-32.36 -7.82,-12.86 -12.62,-24.36 -17.35,-40.2l-69.24 18.03z"/>
   <path class="fil0" d="M1394.23 148.59c1.64,17.67 10.48,25.63 18.63,36.32 3.77,4.95 22.18,24.83 30.32,22.49 8.75,-2.51 14.94,-24.7 19.06,-35.23 9.12,-23.31 7.85,-6.39 1.72,-41.7l-69.73 18.12z"/>
   <path class="fil4" d="M454.03 724.44c6.21,-10.22 17.8,-17.26 30.19,-23.77 6.12,-3.21 12,-5.86 18.7,-8.35 5.23,-1.94 15.85,-4.31 19.77,-7.73 -21.23,-8.6 -38.19,-28.74 -45.98,-33.23 -5.15,3.98 -7.5,7.82 -12.67,12.17 -9.44,7.95 -32.91,28.58 -38.87,36.44 4,6.52 21.56,22.37 28.86,24.47z"/>
   <path class="fil1" d="M1170.26 64.41l1.42 2.82c4.86,-7.86 20.06,-22.29 30.23,-26.87 19.32,-8.71 30.93,-1.38 42.2,8.48 2.9,-3.64 1.63,-1.33 2.97,-7.41l3.53 -23.46 -70.47 -12.3 -9.88 58.74z"/>
   <path class="fil4" d="M708.55 199.9l-0.11 -2.69c-54.29,15.4 -53.47,-4.54 -84.94,-2.93 -9.52,29.39 6.51,19.95 25.69,40.81 4.26,4.62 4.85,6.13 10.21,9.04 4.93,-2.63 7.23,-6.8 11.92,-10.7l37.23 -33.53z"/>
   <path class="fil3" d="M1278.03 1038.27c4.73,15.84 9.53,27.34 17.35,40.2 9.17,15.07 23.47,31.12 24.15,32.36 -15,30.71 -45.57,17.47 -55.15,-3.11 -9.32,-20.04 -9.66,-47.12 -52.37,-37.75l-3.22 -13.67 69.24 -18.03zm-75.9 13.38c0,8.24 4.06,19.73 6.77,25.36 35.06,-8.17 34.62,-4.1 48.5,29.27 3.49,8.39 6.38,12.19 12.83,17.61 14.43,12.12 30.69,15.82 44.82,1.79 16.9,-16.78 11.43,-15.08 -2.64,-32.14 -7.84,-9.51 -17.87,-26.43 -22.62,-38.24 -1.38,-3.42 -2.73,-6.52 -4.21,-11.01 -1.6,-4.84 -2.2,-9.21 -3.98,-12.93 -9.32,0.78 -69.31,19.45 -79.47,20.29z"/>
   <path class="fil3" d="M1171.68 67.23l-3.48 3.51 2.06 -6.33 9.88 -58.74 70.47 12.3 -3.53 23.46c-1.34,6.08 -0.07,3.77 -2.97,7.41 -11.27,-9.86 -22.88,-17.19 -42.2,-8.48 -10.17,4.58 -25.37,19.01 -30.23,26.87zm-8.43 17.31c5.2,-1.39 3.82,-1.46 6.52,-5.31l16.71 -20.49c12.84,-12.85 31.47,-24.05 49.8,-10.04 7.46,5.68 4.18,9.73 13.19,10.48 1.33,-5.71 9.23,-43.05 6.77,-45.66 -1.28,-1.35 -70.4,-13.52 -81.16,-13.52 -0.15,6.72 -2.26,13.69 -3.54,20.13 -2.29,11.54 -11.53,57.67 -8.29,64.41z"/>
   <path class="fil3" d="M1394.23 148.59l69.73 -18.12c6.13,35.31 7.4,18.39 -1.72,41.7 -4.12,10.53 -10.31,32.72 -19.06,35.23 -8.14,2.34 -26.55,-17.54 -30.32,-22.49 -8.15,-10.69 -16.99,-18.65 -18.63,-36.32zm-6.11 -3.19c0,23.25 24.02,51.27 41.5,63.33 13.45,9.28 21.24,5.48 28.99,-11.43l10.85 -28.03c4.89,-11.64 7.22,-2.42 2.22,-27.96 -3.97,-20.29 2.14,-20.42 -45.26,-6.64l-38.3 10.73z"/>
   <path class="fil3" d="M708.55 199.9l-37.23 33.53c-4.69,3.9 -6.99,8.07 -11.92,10.7 -5.36,-2.91 -5.95,-4.42 -10.21,-9.04 -19.18,-20.86 -35.21,-11.42 -25.69,-40.81 31.47,-1.61 30.65,18.33 84.94,2.93 9.38,-3.94 1.95,-0.4 3.59,0.86 -1.09,1.26 -1.93,0.74 -3.48,1.83zm-93.11 4.68c0,25.34 4.25,8.54 33.42,37.59 3.91,3.89 6.17,6.83 10.54,9.75l29.14 -26.65c3.44,-3.18 4.15,-3.13 7.56,-5.97l14.53 -14.2c3.73,-3.09 5.39,-3.47 7.94,-7.28 -1.03,-4.45 -1.53,-4.97 -3.38,-8.45 -6.49,0.54 -10.15,3.44 -16.84,5.13 -49.19,12.49 -82.91,-26.93 -82.91,10.08z"/>
   <path class="fil5" d="M1208.65 706.45l-2.09 0.12c3.27,5.68 4.91,6.18 12.39,10.65l-6.67 -8.76c-2.51,-2 -0.49,-0.48 -3.63,-2.01z"/>
   <path class="fil6" d="M1206.56 706.57l2.09 -0.12c-0.52,-0.85 -2.45,-4.26 -2.96,-4.89 -4.52,-5.57 -1,-2.14 -5.47,-3.63l6.34 8.64z"/>
   <path class="fil7" d="M708.55 199.9c1.55,-1.09 2.39,-0.57 3.48,-1.83 -1.64,-1.26 5.79,-4.8 -3.59,-0.86l0.11 2.69z"/>
   <polygon class="fil8" points="1171.68,67.23 1170.26,64.41 1168.2,70.74 "/>
   <path class="fil9" d="M280.46 347.97c3.92,2.7 0.66,1.82 6.72,2.04l0.27 -7.22 -1.11 7.1 -5.88 -1.92z"/>
  </g>
 </g>
</svg>
